<svg xmlns="http://www.w3.org/2000/svg" version="1.1" xmlns:xlink="http://www.w3.org/1999/xlink" xmlns:svgjs="http://svgjs.com/svgjs" width="1440" height="560" preserveAspectRatio="none" viewBox="0 0 1440 560"><g mask="url(&quot;#SvgjsMask1159&quot;)" fill="none"><rect width="1440" height="560" x="0" y="0" fill="url(#SvgjsLinearGradient1160)"></rect><path d="M -110.70167439996294,227 C -14.7,260.2 177.3,386.8 369.29832560003706,393 C 561.3,399.2 657.3,257.2 849.2983256000371,258 C 1041.3,258.8 1137.3,427.6 1329.298325600037,397 C 1521.3,366.4 1787.16,118.8 1809.298325600037,105 C 1831.44,91.2 1513.86,283.4 1440,328" stroke="rgba(51, 121, 194, 0.58)" stroke-width="2"></path><path d="M -421.3821166160014,356 C -325.38,331.2 -133.38,208 58.61788338399862,232 C 250.62,256 346.62,480.4 538.6178833839986,476 C 730.62,471.6 826.62,213.2 1018.6178833839986,210 C 1210.62,206.8 1414.34,487.4 1498.6178833839986,460 C 1582.89,432.6 1451.72,150.4 1440,73" stroke="rgba(51, 121, 194, 0.58)" stroke-width="2"></path><path d="M -739.4069986659006,247 C -643.41,297.4 -451.41,504.8 -259.4069986659005,499 C -67.41,493.2 28.59,242.2 220.59300133409948,218 C 412.59,193.8 508.59,410.2 700.5930013340994,378 C 892.59,345.8 1032.71,57.6 1180.5930013340994,57 C 1328.47,56.4 1388.12,311.4 1440,375" stroke="rgba(51, 121, 194, 0.58)" stroke-width="2"></path><path d="M -480.2395452045538,212 C -384.24,266.8 -192.24,481.4 -0.23954520455376382,486 C 191.76,490.6 287.76,237 479.7604547954462,235 C 671.76,233 767.76,480.2 959.7604547954462,476 C 1151.76,471.8 1343.71,245.4 1439.7604547954463,214 C 1535.81,182.6 1439.95,298 1440,319" stroke="rgba(51, 121, 194, 0.58)" stroke-width="2"></path></g><defs><mask id="SvgjsMask1159"><rect width="1440" height="560" fill="#ffffff"></rect></mask><linearGradient x1="15.28%" y1="-39.29%" x2="84.72%" y2="139.29%" gradientUnits="userSpaceOnUse" id="SvgjsLinearGradient1160"><stop stop-color="#0e2a47" offset="0"></stop><stop stop-color="rgba(62, 82, 81, 1)" offset="1"></stop></linearGradient></defs></svg>