<svg id="Layer_1" data-name="Layer 1" xmlns="http://www.w3.org/2000/svg" viewBox="0 0 400 300" width="205.8" height="154.35" class="illustration styles_illustrationTablet__1DWOa"><ellipse cx="199.82" cy="247.57" rx="152.81" ry="9.44" fill="#e6e6e6" opacity="0.45"></ellipse><polygon points="175.54 179.15 164.54 236.49 218.21 236.49 207.21 179.15 175.54 179.15" fill="#c9c9c9"></polygon><rect x="89.52" y="57.65" width="209.5" height="136.34" fill="#e6e6e6"></rect><rect x="157.21" y="230.82" width="68" height="11.57" fill="#e6e6e6"></rect><rect x="89.52" y="57.65" width="209.5" height="120.67" fill="#fff" opacity="0.56"></rect><circle cx="105.6" cy="69.91" r="4.41" fill="#24285b"></circle><circle cx="118.72" cy="69.91" r="4.41" fill="#ff7700"></circle><circle cx="131.07" cy="69.91" r="4.41" fill="#ffd200"></circle><rect x="252.96" y="151.77" width="28" height="8.49" fill="#c9c9c9"></rect><rect x="252.96" y="78.82" width="28" height="60.06" fill="#c9c9c9" opacity="0.3"></rect><path d="M79.39,237.29s-8.32-2.27-10.13-10c0,0,12.89-2.61,13.26,10.69Z" fill="#ff7700" opacity="0.58"></path><path d="M80.41,236.47s-5.81-9.19-.7-17.78c0,0,9.8,6.22,5.45,17.8Z" fill="#ff7700" opacity="0.73"></path><path d="M81.91,236.47s3.07-9.7,12.35-11.54c0,0,1.74,6.3-6,11.57Z" fill="#ff7700"></path><path d="M274.45,127.25s-14.91,9.15-8.22,19.93,9.39,19.95,2.91,21.23-17,7.9-13,25.58H288.2l2.33-29.39-12.89-25.22Z" opacity="0.08"></path><polygon points="75.87 236.25 77.56 247.79 88.18 247.83 89.74 236.31 75.87 236.25" fill="#24285b"></polygon><polygon points="277.77 135.49 284.72 145.48 279.94 150.03 276.89 140.39 277.77 135.49" fill="#f4a28c"></polygon><path d="M277.46,142.28a4.89,4.89,0,0,0,1.55-2.35,7.73,7.73,0,0,1-.4,5.67Z" fill="#ce8172" opacity="0.31"></path><path d="M270.7,138.32a25.89,25.89,0,0,0,3.64,5.84,2.07,2.07,0,0,0,2.94.08,4.58,4.58,0,0,0,1.46-4.77l-.67-3.76A3.72,3.72,0,0,0,274.7,133C271.85,132.7,269.56,136.07,270.7,138.32Z" fill="#f4a28c"></path><path d="M271.89,140.65l-.23,2a.66.66,0,0,0,.87.7l1.53-.51Z" fill="#f4a28c"></path><path d="M270,136.42s.36,4.53,6.25,2.86l4.23.13s.34-3.95-1.53-6.65S269.06,129.92,270,136.42Z" fill="#24285b"></path><circle cx="278.1" cy="127.25" r="6.41" fill="#24285b"></circle><path d="M276.27,139.28s-.75-1.4.36-1.88,2.2,1.55.88,2.53Z" fill="#f4a28c"></path><path d="M278.51,150.84s-16.33,13.91-16.07,23.87a43.69,43.69,0,0,0,4.21,17.49l5.14-1.89s-6-16.88,7.34-24.15S278.51,150.84,278.51,150.84Z" fill="#ff7700"></path><path d="M278.51,150.84s-16.33,13.91-16.07,23.87a43.69,43.69,0,0,0,4.21,17.49l5.14-1.89s-6-16.88,7.34-24.15S278.51,150.84,278.51,150.84Z" opacity="0.08"></path><path d="M273.08,131.23s0-1.08,3.08-1.08,3.73,2.47,3.28,3.41C279.44,133.56,277.68,130,273.08,131.23Z" fill="#ffd200"></path><path d="M278.51,150.84l-.35-4.21,6.36-5.11,2.31,3.27s10.71-3.27,15.31,7.84-.64,26.52-.64,26.52l-19.4,2.71s1.24-3.32-2.26-7.92S270.06,162.2,278.51,150.84Z" fill="#ff7700"></path><rect x="282.21" y="126.47" width="2.04" height="111.82" transform="translate(268.33 -154.16) rotate(54.69)" fill="#24285b"></rect><rect x="220.21" y="212.38" width="25.7" height="11.23" transform="translate(276.21 -98.19) rotate(54.69)" fill="#ffd200"></rect><rect x="222.86" y="213.75" width="25.7" height="4.74" transform="translate(275.8 -101.15) rotate(54.69)" fill="#24285b"></rect><path d="M286.83,144.79s7.78-9.65,18.37-10.8,14.81,9.32,12.39,24.38l-5.07,1.76s.47-15.55-5-17.33S294.62,165.67,286.83,144.79Z" fill="#ff7700"></path><path d="M313.12,158.88s-2.05,4.72,1.4,5.36,5.18-5.36,5.18-5.36-.45-2.42-2-2.87S313.12,158.88,313.12,158.88Z" fill="#ffd200"></path><polygon points="262.95 183.52 270.79 182.75 272.13 192.58 266.25 194.24 262.95 183.52" fill="#ffd200"></polygon><polygon points="285.27 208.93 273.96 245.19 271.33 245.19 273.78 207.82 285.27 208.93" fill="#f4a28c"></polygon><ellipse cx="188.89" cy="134.03" rx="26.21" ry="3.9" opacity="0.08"></ellipse><path d="M271.52,245.19s-1.45,1.84-3.31,1.75-2.13,2.54.86,2.27a16.63,16.63,0,0,0,2.75-.48,4.9,4.9,0,0,1,2.52.09.79.79,0,0,0,.85-.34c.85-1-1.23-3.29-1.23-3.29Z" fill="#ff7700"></path><polygon points="295.1 205.53 304.21 242.41 301.96 243.78 284.7 210.53 295.1 205.53" fill="#f4a28c"></polygon><path d="M302.12,243.68s-.29,2.32-1.92,3.21-.51,3.27,1.9,1.49a15.35,15.35,0,0,0,2.11-1.83,4.89,4.89,0,0,1,2.21-1.23.81.81,0,0,0,.55-.73c.21-1.29-2.76-2.18-2.76-2.18Z" fill="#ff7700"></path><polygon points="262.95 183.52 270.79 182.75 272.13 192.58 266.25 194.24 262.95 183.52" opacity="0.08"></polygon><path d="M271.79,190.31s-6.67-1.3-8.2,1.89,2.07,5.62,5.18,4.21S273.11,192.64,271.79,190.31Z" fill="#ffd200"></path><path d="M301.5,179.15v22.72a109.33,109.33,0,0,0,.65,11.86L304,230.82l-36.49-2s2.43-30.38,14.56-47C282.1,181.86,292.24,180,301.5,179.15Z" fill="#24285b"></path><polygon points="321.73 227.18 340.63 227.18 339.35 247.21 324.03 247.21 321.73 227.18" fill="#c9c9c9"></polygon><path d="M323.27,227.18V221a7.84,7.84,0,0,1,7.85-7.85h0A7.85,7.85,0,0,1,339,221v6.19" fill="none" stroke="#e6e6e6" stroke-miterlimit="10"></path><path d="M239.27,247.83s2-11.84-8.43-12.86.77-3.26-6.64-10.32-12.51-2.46-14,1.85-1.06,12.3-9.85,6.93-15.94-11.49-21.3-4.08-16.6,4.54-12.77,18.48Z" fill="#ff7700"></path><path d="M239.27,247.83s2-11.84-8.43-12.86.77-3.26-6.64-10.32-12.51-2.46-14,1.85-1.06,12.3-9.85,6.93-15.94-11.49-21.3-4.08-16.6,4.54-12.77,18.48Z" fill="#fff" opacity="0.44"></path><polygon points="168.67 96.2 171.99 133.9 205.31 133.9 208.24 96.2 168.67 96.2" fill="#24285b"></polygon><path d="M187.44,247.83s2.68-7.25-2.05-10.06-8.93,1.41-8.93,1.41-.51-7.15-9.07-6-3.38,7-10.18,6.25-10.88,3.4-9.22,8.4Z" fill="#ff7700"></path><path d="M187.44,247.83s2.68-7.25-2.05-10.06-8.93,1.41-8.93,1.41-.51-7.15-9.07-6-3.38,7-10.18,6.25-10.88,3.4-9.22,8.4Z" fill="#fff" opacity="0.64"></path><path d="M191,85.48s-1.28-6.3,7-6.66,2.94,11.64,6.51,12S188.84,97.48,191,85.48Z" fill="#ff7700"></path><path d="M191,85.48s-1.28-6.3,7-6.66,2.94,11.64,6.51,12S188.84,97.48,191,85.48Z" fill="#fff" opacity="0.44"></path><rect x="164.65" y="93.52" width="47.49" height="5.36" rx="2.68" fill="#ffd200"></rect><path d="M169.44,93.52s-2.56-7.41,2.42-9.19,3.45,4.59,7.92,1.27-.64-4.85,4.46-8.17,9.2-2.93,10,2.81.7,7.66,5.29,6.13,11,1.79,8.68,7.15Z" fill="#ff7700"></path><rect x="155.1" y="150.03" width="67.57" height="7.51" fill="#fff"></rect><rect x="155.1" y="150.03" width="49.89" height="7.51" fill="#c9c9c9"></rect><rect x="70.93" y="99.87" width="59.09" height="62.73" fill="#c9c9c9"></rect><path d="M86.62,122.06l4-7.94v-.06H85.94v-1.94h7.18v1.95l-4,8Z" fill="#8e8e8e"></path><path d="M98.34,122.3a3.77,3.77,0,0,1-3.69-2.4,6.88,6.88,0,0,1-.51-2.79,6.8,6.8,0,0,1,.51-2.78,3.85,3.85,0,0,1,1.45-1.74,4.48,4.48,0,0,1,4.48,0,3.87,3.87,0,0,1,1.46,1.74,6.81,6.81,0,0,1,.5,2.78,7,7,0,0,1-.51,2.8,3.91,3.91,0,0,1-1.45,1.78A4,4,0,0,1,98.34,122.3Zm0-2a1.41,1.41,0,0,0,1.25-.8,4.69,4.69,0,0,0,.48-2.43,6,6,0,0,0-.22-1.78,2.29,2.29,0,0,0-.6-1,1.34,1.34,0,0,0-.91-.34,1.42,1.42,0,0,0-1.25.78,4.65,4.65,0,0,0-.48,2.39,6.61,6.61,0,0,0,.21,1.81,2.38,2.38,0,0,0,.61,1.07A1.35,1.35,0,0,0,98.34,120.34Z" fill="#8e8e8e"></path><path d="M104.33,114.51V114a2.52,2.52,0,0,1,.27-1.14,2.08,2.08,0,0,1,.78-.83,2.23,2.23,0,0,1,1.22-.31,2.34,2.34,0,0,1,1.25.31,2,2,0,0,1,.77.83,2.39,2.39,0,0,1,.26,1.14v.52a2.45,2.45,0,0,1-.26,1.14,2.12,2.12,0,0,1-.78.82,2.4,2.4,0,0,1-1.24.3,2.31,2.31,0,0,1-1.24-.31,2,2,0,0,1-.76-.82A2.42,2.42,0,0,1,104.33,114.51Zm.51,7.55,6.83-9.94H113l-6.83,9.94Zm1-8.07v.52a1.34,1.34,0,0,0,.16.6.56.56,0,0,0,.55.28.58.58,0,0,0,.57-.28,1.11,1.11,0,0,0,.14-.6V114a1.31,1.31,0,0,0-.13-.62.58.58,0,0,0-.58-.29.55.55,0,0,0-.55.3A1.5,1.5,0,0,0,105.89,114Zm3.6,6.21v-.53a2.44,2.44,0,0,1,.26-1.13,2.12,2.12,0,0,1,.77-.83,2.3,2.3,0,0,1,1.23-.32,2.32,2.32,0,0,1,1.25.32,1.93,1.93,0,0,1,.77.83,2.38,2.38,0,0,1,.26,1.13v.53a2.44,2.44,0,0,1-.26,1.13,2,2,0,0,1-.77.83,2.34,2.34,0,0,1-1.25.32,2.31,2.31,0,0,1-1.24-.32,2.09,2.09,0,0,1-.76-.83A2.44,2.44,0,0,1,109.49,120.2Zm1.54-.53v.53a1.41,1.41,0,0,0,.16.59.56.56,0,0,0,.56.29.58.58,0,0,0,.57-.28,1.13,1.13,0,0,0,.14-.6v-.53a1.18,1.18,0,0,0-.13-.61.71.71,0,0,0-1.14,0A1.46,1.46,0,0,0,111,119.67Z" fill="#8e8e8e"></path><rect x="81.16" y="131.23" width="37.16" height="21.12" fill="#fff" opacity="0.24"></rect><path d="M276,192.89l25.48-13.74a66.29,66.29,0,0,0,2.16-10l-20.43,14.47-4.29,3S276.48,191.79,276,192.89Z" opacity="0.08"></path></svg>
