<svg xmlns="http://www.w3.org/2000/svg" viewBox="0 0 400 300" width="205.8" height="154.35" class="illustration styles_illustrationTablet__1DWOa"><g id="_215_iphone_flatline" data-name="#215_iphone_flatline"><ellipse cx="200.05" cy="260.04" rx="116.46" ry="2.67" fill="#d1d3d4"></ellipse><rect x="207.2" y="37.28" width="105.91" height="221.33" rx="12.08" fill="#231f20"></rect><path d="M301,37.28a12.08,12.08,0,0,1,12.08,12.08V246.53A12.08,12.08,0,0,1,301,258.61H219.28a12.08,12.08,0,0,1-12.08-12.08V49.36a12.08,12.08,0,0,1,12.08-12.08H301m0-1H219.28A13.09,13.09,0,0,0,206.2,49.36V246.53a13.1,13.1,0,0,0,13.08,13.08H301a13.09,13.09,0,0,0,13.07-13.08V49.36A13.08,13.08,0,0,0,301,36.29Z" fill="#231f20"></path><rect x="211.4" y="41.55" width="97.51" height="212.79" rx="10.7" fill="#ff7700"></rect><polygon points="206.28 75.71 204.88 75.22 204.88 65.38 206.28 64.89 206.28 75.71" fill="#231f20"></polygon><path d="M206.28,76.21a.51.51,0,0,1-.17,0l-1.4-.49a.5.5,0,0,1-.33-.47V65.38a.5.5,0,0,1,.33-.47l1.4-.49a.53.53,0,0,1,.46.06.52.52,0,0,1,.21.41V75.71a.49.49,0,0,1-.5.5Zm-.91-1.35.41.15V65.59l-.41.15Z" fill="#231f20"></path><polygon points="313.55 113.92 314.96 112.65 314.96 87.18 313.55 85.9 313.55 113.92" fill="#231f20"></polygon><path d="M313.55,114.42a.51.51,0,0,1-.2,0,.5.5,0,0,1-.29-.46v-28a.49.49,0,0,1,.29-.45.51.51,0,0,1,.54.08l1.4,1.28a.48.48,0,0,1,.17.37v25.47a.5.5,0,0,1-.17.37l-1.4,1.27A.5.5,0,0,1,313.55,114.42Zm.5-27.39V112.8l.41-.37v-25Z" fill="#231f20"></path><polygon points="206.28 101.59 204.88 101.06 204.88 86.02 206.28 85.48 206.28 101.59" fill="#231f20"></polygon><path d="M206.28,102.09a.57.57,0,0,1-.18,0l-1.4-.54a.48.48,0,0,1-.32-.46V86a.5.5,0,0,1,.32-.47l1.4-.53a.5.5,0,0,1,.68.46v16.11a.49.49,0,0,1-.22.41A.47.47,0,0,1,206.28,102.09Zm-.91-1.38.41.16V86.21l-.41.15Z" fill="#231f20"></path><polygon points="206.28 121.53 204.88 121 204.88 105.96 206.28 105.42 206.28 121.53" fill="#231f20"></polygon><path d="M206.28,122a.39.39,0,0,1-.18,0l-1.4-.53a.48.48,0,0,1-.32-.46V106a.5.5,0,0,1,.32-.47l1.4-.53a.5.5,0,0,1,.68.46v16.11a.49.49,0,0,1-.22.41A.47.47,0,0,1,206.28,122Zm-.91-1.38.41.16V106.15l-.41.15Z" fill="#231f20"></path><rect x="205.58" y="101.59" width="0.7" height="3.83" fill="#231f20"></rect><rect x="205.08" y="101.09" width="1.7" height="4.83" rx="0.5" fill="#231f20"></rect><path d="M230.49,163.75a.45.45,0,0,1-.31-.12.46.46,0,0,1,0-.65l65.28-70.46a.46.46,0,0,1,.64,0,.45.45,0,0,1,0,.64L230.82,163.6A.44.44,0,0,1,230.49,163.75Z" fill="#fff"></path><path d="M235,211.73a.44.44,0,0,1-.32-.13.45.45,0,0,1,0-.64l50.79-52.09a.46.46,0,0,1,.66.64l-50.8,52.09A.44.44,0,0,1,235,211.73Z" fill="#fff"></path><path d="M248.21,94a.47.47,0,0,1-.31-.12.46.46,0,0,1,0-.65L261.31,78.9a.46.46,0,0,1,.64,0,.47.47,0,0,1,0,.65L248.54,93.85A.43.43,0,0,1,248.21,94Z" fill="#fff"></path><path d="M231.94,38.6h55.83a0,0,0,0,1,0,0v2.87a7.65,7.65,0,0,1-7.65,7.65H239.59a7.65,7.65,0,0,1-7.65-7.65V38.6A0,0,0,0,1,231.94,38.6Z" fill="#231f20"></path><rect x="249.31" y="41.48" width="17.83" height="2.7" rx="1.35" fill="#939598"></rect><circle cx="272.34" cy="42.83" r="1.99" fill="#939598"></circle><rect x="85.34" y="37.28" width="105.91" height="221.33" rx="12.08" transform="translate(276.59 295.9) rotate(-180)" fill="#231f20"></rect><path d="M179.17,37.28a12.08,12.08,0,0,1,12.08,12.08V246.53a12.08,12.08,0,0,1-12.08,12.08H97.42a12.08,12.08,0,0,1-12.08-12.08V49.36A12.08,12.08,0,0,1,97.42,37.28h81.75m0-1H97.42A13.08,13.08,0,0,0,84.35,49.36V246.53a13.09,13.09,0,0,0,13.07,13.08h81.75a13.1,13.1,0,0,0,13.08-13.08V49.36a13.09,13.09,0,0,0-13.08-13.07Z" fill="#231f20"></path><polygon points="192.17 75.71 193.57 75.22 193.57 65.38 192.17 64.89 192.17 75.71" fill="#231f20"></polygon><path d="M192.17,76.21a.49.49,0,0,1-.5-.5V64.89a.52.52,0,0,1,.21-.41.51.51,0,0,1,.45-.06l1.41.49a.5.5,0,0,1,.33.47v9.84a.5.5,0,0,1-.33.47l-1.41.49A.41.41,0,0,1,192.17,76.21Zm.5-10.62V75l.41-.15V65.74Z" fill="#231f20"></path><polygon points="84.9 113.92 83.49 112.65 83.49 87.18 84.9 85.9 84.9 113.92" fill="#231f20"></polygon><path d="M84.9,114.42a.47.47,0,0,1-.34-.13L83.16,113a.5.5,0,0,1-.17-.37V87.18a.48.48,0,0,1,.17-.37l1.4-1.28a.51.51,0,0,1,.54-.08.49.49,0,0,1,.29.45v28a.5.5,0,0,1-.29.46A.51.51,0,0,1,84.9,114.42Zm-.91-2,.41.37V87L84,87.4Z" fill="#231f20"></path><polygon points="192.17 101.59 193.57 101.06 193.57 86.02 192.17 85.48 192.17 101.59" fill="#231f20"></polygon><path d="M192.17,102.09a.47.47,0,0,1-.28-.09.49.49,0,0,1-.22-.41V85.48a.5.5,0,0,1,.68-.46l1.4.53a.51.51,0,0,1,.32.47v15a.5.5,0,0,1-.32.46l-1.4.54A.57.57,0,0,1,192.17,102.09Zm.5-15.88v14.66l.41-.16V86.36Z" fill="#231f20"></path><polygon points="192.17 121.53 193.57 121 193.57 105.96 192.17 105.42 192.17 121.53" fill="#231f20"></polygon><path d="M192.17,122a.47.47,0,0,1-.28-.09.49.49,0,0,1-.22-.41V105.42a.5.5,0,0,1,.68-.46l1.4.53a.51.51,0,0,1,.32.47v15a.5.5,0,0,1-.32.46l-1.4.53A.39.39,0,0,1,192.17,122Zm.5-15.88v14.66l.41-.16V106.3Z" fill="#231f20"></path><rect x="192.17" y="101.59" width="0.7" height="3.83" transform="translate(385.04 207.01) rotate(-180)" fill="#231f20"></rect><rect x="191.67" y="101.09" width="1.7" height="4.83" rx="0.5" fill="#231f20"></rect><rect x="95.45" y="47.08" width="17.95" height="40.43" rx="8.97" fill="#231f20"></rect><path d="M104.42,88A9.48,9.48,0,0,1,95,78.54V56.06a9.47,9.47,0,0,1,18.94,0V78.54A9.48,9.48,0,0,1,104.42,88Zm0-40.43A8.48,8.48,0,0,0,96,56.06V78.54a8.48,8.48,0,0,0,17,0V56.06A8.49,8.49,0,0,0,104.42,47.58Z" fill="#fff"></path><circle cx="104.08" cy="55.26" r="3.75" fill="#231f20"></circle><path d="M104.08,59.51a4.25,4.25,0,1,1,4.25-4.25A4.25,4.25,0,0,1,104.08,59.51Zm0-7.5a3.26,3.26,0,1,0,3.25,3.25A3.26,3.26,0,0,0,104.08,52Z" fill="#fff"></path><circle cx="104.08" cy="65.38" r="3.75" fill="#ff7700"></circle><path d="M104.08,69.63a4.25,4.25,0,1,1,4.25-4.25A4.26,4.26,0,0,1,104.08,69.63Zm0-7.5a3.25,3.25,0,1,0,3.25,3.25A3.26,3.26,0,0,0,104.08,62.13Z" fill="#ff7700"></path><circle cx="104.08" cy="75.5" r="3.75" fill="#231f20"></circle><path d="M104.08,79.75a4.25,4.25,0,1,1,4.25-4.25A4.26,4.26,0,0,1,104.08,79.75Zm0-7.5a3.25,3.25,0,1,0,3.25,3.25A3.25,3.25,0,0,0,104.08,72.25Z" fill="#fff"></path></g></svg>