<svg xmlns="http://www.w3.org/2000/svg" viewBox="0 0 400 300" width="205.8" height="154.35" class="illustration styles_illustrationTablet__1DWOa"><g id="_464_artifical_inteligence_outline" data-name="#464_artifical_inteligence_outline"><path d="M195.25,88V212a20.66,20.66,0,1,1-41.32,0v-1.74a22.75,22.75,0,0,1-3,.2,23.66,23.66,0,0,1-23.64-23.65,23.37,23.37,0,0,1,4.63-14,23.66,23.66,0,0,1,0-45.5,23.37,23.37,0,0,1-4.63-14,23.66,23.66,0,0,1,23.64-23.65,22.75,22.75,0,0,1,3,.2V88a20.66,20.66,0,1,1,41.32,0Z" fill="#ff7700"></path><path d="M174.59,233.65A21.68,21.68,0,0,1,152.93,212v-.63c-.66.06-1.32.09-2,.09a24.67,24.67,0,0,1-24.64-24.65,24.31,24.31,0,0,1,4-13.5,24.65,24.65,0,0,1,0-46.58,24.31,24.31,0,0,1-4-13.5,24.67,24.67,0,0,1,24.64-24.65c.67,0,1.33,0,2,.09V88a21.66,21.66,0,1,1,43.32,0V212A21.69,21.69,0,0,1,174.59,233.65Zm-20.66-24.41a1,1,0,0,1,1,1V212a19.66,19.66,0,1,0,39.32,0V88a19.66,19.66,0,1,0-39.32,0v1.74a1,1,0,0,1-1.14,1,22.36,22.36,0,0,0-2.85-.19,22.67,22.67,0,0,0-22.64,22.65,22.29,22.29,0,0,0,4.43,13.44,1,1,0,0,1-.53,1.56,22.66,22.66,0,0,0,0,43.58,1,1,0,0,1,.53,1.56,22.29,22.29,0,0,0-4.43,13.44,22.67,22.67,0,0,0,22.64,22.65,22.36,22.36,0,0,0,2.85-.19Z" fill="#093f68"></path><path d="M204.75,88V212a20.66,20.66,0,1,0,41.32,0v-1.74a22.75,22.75,0,0,0,3,.2,23.66,23.66,0,0,0,23.64-23.65,23.37,23.37,0,0,0-4.63-14,23.66,23.66,0,0,0,0-45.5,23.37,23.37,0,0,0,4.63-14,23.66,23.66,0,0,0-23.64-23.65,22.75,22.75,0,0,0-3,.2V88a20.66,20.66,0,1,0-41.32,0Z" fill="#ff7700"></path><path d="M225.41,233.65A21.69,21.69,0,0,1,203.75,212V88a21.66,21.66,0,1,1,43.32,0v.63c.66-.06,1.32-.09,2-.09a24.67,24.67,0,0,1,24.64,24.65,24.31,24.31,0,0,1-4,13.5,24.65,24.65,0,0,1,0,46.58,24.31,24.31,0,0,1,4,13.5,24.67,24.67,0,0,1-24.64,24.65c-.67,0-1.33,0-2-.09V212A21.68,21.68,0,0,1,225.41,233.65Zm0-165.3A19.67,19.67,0,0,0,205.75,88V212a19.66,19.66,0,1,0,39.32,0v-1.74a1,1,0,0,1,1.14-1,22.36,22.36,0,0,0,2.85.19,22.67,22.67,0,0,0,22.64-22.65,22.29,22.29,0,0,0-4.43-13.44,1,1,0,0,1,.53-1.56,22.66,22.66,0,0,0,0-43.58,1,1,0,0,1-.53-1.56,22.29,22.29,0,0,0,4.43-13.44,22.67,22.67,0,0,0-22.64-22.65,22.36,22.36,0,0,0-2.85.19,1,1,0,0,1-1.14-1V88A19.69,19.69,0,0,0,225.41,68.35Z" fill="#093f68"></path><circle cx="248.7" cy="193.46" r="3.55" fill="#093f68"></circle><path d="M248.7,198a4.55,4.55,0,1,1,4.55-4.55A4.55,4.55,0,0,1,248.7,198Zm0-7.09a2.55,2.55,0,1,0,2.55,2.54A2.54,2.54,0,0,0,248.7,190.92Z" fill="#093f68"></path><circle cx="216.06" cy="192.12" r="3.55" fill="#093f68"></circle><path d="M216.06,196.66a4.55,4.55,0,1,1,4.54-4.54A4.55,4.55,0,0,1,216.06,196.66Zm0-7.09a2.55,2.55,0,1,0,2.54,2.55A2.55,2.55,0,0,0,216.06,189.57Z" fill="#093f68"></path><circle cx="163.83" cy="200.35" r="3.55" fill="#093f68"></circle><path d="M163.83,204.9a4.55,4.55,0,1,1,4.55-4.55A4.55,4.55,0,0,1,163.83,204.9Zm0-7.09a2.55,2.55,0,1,0,2.55,2.54A2.55,2.55,0,0,0,163.83,197.81Z" fill="#093f68"></path><circle cx="145.67" cy="171.39" r="3.55" fill="#093f68"></circle><path d="M145.67,175.93a4.55,4.55,0,1,1,4.55-4.54A4.55,4.55,0,0,1,145.67,175.93Zm0-7.09a2.55,2.55,0,1,0,2.55,2.55A2.55,2.55,0,0,0,145.67,168.84Z" fill="#093f68"></path><circle cx="128.53" cy="147.99" r="3.55" fill="#093f68"></circle><path d="M128.53,152.53a4.55,4.55,0,1,1,4.55-4.54A4.54,4.54,0,0,1,128.53,152.53Zm0-7.09a2.55,2.55,0,1,0,2.55,2.55A2.55,2.55,0,0,0,128.53,145.44Z" fill="#093f68"></path><circle cx="146.6" cy="116.46" r="3.55" fill="#093f68"></circle><path d="M146.6,121a4.55,4.55,0,1,1,4.54-4.55A4.55,4.55,0,0,1,146.6,121Zm0-7.09a2.55,2.55,0,1,0,2.54,2.54A2.55,2.55,0,0,0,146.6,113.92Z" fill="#093f68"></path><circle cx="165.06" cy="93.93" r="3.55" fill="#093f68"></circle><path d="M165.06,98.47a4.55,4.55,0,1,1,4.54-4.54A4.55,4.55,0,0,1,165.06,98.47Zm0-7.09a2.55,2.55,0,1,0,2.54,2.55A2.55,2.55,0,0,0,165.06,91.38Z" fill="#093f68"></path><path d="M248.94,193.12a1,1,0,0,1-.94-.66l-8.52-23.62H220.76a1,1,0,0,1,0-2h19.42a1,1,0,0,1,.94.66l8.76,24.28a1,1,0,0,1-.6,1.28A1,1,0,0,1,248.94,193.12Z" fill="#093f68"></path><rect x="176.43" y="126.14" width="47.71" height="47.71" rx="3.63" fill="#fff"></rect><path d="M220.51,174.85H180.06a4.62,4.62,0,0,1-4.63-4.62V129.77a4.62,4.62,0,0,1,4.63-4.62h40.45a4.63,4.63,0,0,1,4.63,4.62v40.46A4.63,4.63,0,0,1,220.51,174.85Zm-40.45-47.7a2.62,2.62,0,0,0-2.63,2.62v40.46a2.62,2.62,0,0,0,2.63,2.62h40.45a2.62,2.62,0,0,0,2.63-2.62V129.77a2.62,2.62,0,0,0-2.63-2.62Z" fill="#093f68"></path><rect x="184.51" y="134.23" width="31.55" height="31.55" rx="2.4" fill="#093f68"></rect><path d="M213.66,166.77H186.91a3.4,3.4,0,0,1-3.4-3.4V136.63a3.4,3.4,0,0,1,3.4-3.4h26.75a3.4,3.4,0,0,1,3.4,3.4v26.74A3.4,3.4,0,0,1,213.66,166.77Zm-26.75-31.54a1.4,1.4,0,0,0-1.4,1.4v26.74a1.4,1.4,0,0,0,1.4,1.4h26.75a1.4,1.4,0,0,0,1.4-1.4V136.63a1.4,1.4,0,0,0-1.4-1.4Z" fill="#093f68"></path><path d="M242.56,136.23H224.82a1,1,0,0,1,0-2H242l7.94-13a1,1,0,0,1,1.37-.33,1,1,0,0,1,.33,1.38l-8.23,13.51A1,1,0,0,1,242.56,136.23Z" fill="#093f68"></path><circle cx="252.58" cy="119.55" r="3.55" fill="#093f68"></circle><path d="M252.58,124.1a4.55,4.55,0,1,1,4.55-4.55A4.55,4.55,0,0,1,252.58,124.1Zm0-7.09a2.55,2.55,0,1,0,2.55,2.54A2.54,2.54,0,0,0,252.58,117Z" fill="#093f68"></path><circle cx="234.85" cy="97.47" r="3.55" fill="#093f68"></circle><path d="M234.85,102a4.55,4.55,0,1,1,4.55-4.55A4.55,4.55,0,0,1,234.85,102Zm0-7.09a2.55,2.55,0,1,0,2.55,2.54A2.55,2.55,0,0,0,234.85,94.93Z" fill="#093f68"></path><circle cx="256.08" cy="158.97" r="3.55" fill="#093f68"></circle><path d="M256.08,163.52a4.55,4.55,0,1,1,4.54-4.54A4.55,4.55,0,0,1,256.08,163.52Zm0-7.09a2.55,2.55,0,1,0,2.54,2.55A2.55,2.55,0,0,0,256.08,156.43Z" fill="#093f68"></path><circle cx="263.17" cy="145.02" r="3.55" fill="#093f68"></circle><path d="M263.17,149.57a4.55,4.55,0,1,1,4.54-4.55A4.55,4.55,0,0,1,263.17,149.57Zm0-7.09a2.55,2.55,0,1,0,2.54,2.54A2.55,2.55,0,0,0,263.17,142.48Z" fill="#093f68"></path><path d="M256.08,160H224.14a1,1,0,0,1,0-2h31.94a1,1,0,0,1,0,2Z" fill="#093f68"></path><path d="M216.06,127.15a1,1,0,0,1-1-1v-16a1,1,0,0,1,.47-.85l18.8-11.54a1,1,0,0,1,1.37.32,1,1,0,0,1-.33,1.38L217.06,110.7v15.45A1,1,0,0,1,216.06,127.15Z" fill="#093f68"></path><path d="M184.51,127.15A1,1,0,0,1,184,127l-19-10.14a1,1,0,0,1-.53-.88V93.93a1,1,0,0,1,2,0v21.48L185,125.26a1,1,0,0,1-.47,1.89Z" fill="#093f68"></path><path d="M167.84,136.4c-4.48,0-11.19-.05-21.26-.17a1,1,0,0,1-1-1v-18a1,1,0,0,1,2,0v17c11,.13,26.8.23,28.49,0a1.27,1.27,0,0,1,.34-.05,1,1,0,0,1,.7,1.71C176.87,136.2,176.67,136.4,167.84,136.4Z" fill="#093f68"></path><path d="M175,149H129.68a1,1,0,0,1,0-2H175a1,1,0,0,1,0,2Z" fill="#093f68"></path><path d="M261.62,147H224.14a1,1,0,0,1,0-2h37.48a1,1,0,0,1,0,2Z" fill="#093f68"></path><path d="M146.59,171.26a1,1,0,0,1-.59-.2,1,1,0,0,1-.21-1.4l8.41-11.28a1,1,0,0,1,.74-.4c13.62-.89,21.06-.84,22.11.14a1.18,1.18,0,0,1,.38.86,1,1,0,0,1-1.77.64c-1.71-.5-11.33-.24-20.13.32l-8.13,10.92A1,1,0,0,1,146.59,171.26Z" fill="#093f68"></path><path d="M163,200.17a1,1,0,0,1-1-1V167.84a1,1,0,0,1,1-1h13.48a1,1,0,0,1,0,2H164v30.33A1,1,0,0,1,163,200.17Z" fill="#093f68"></path><path d="M216.06,189.11a1,1,0,0,1-1-1V173.85a1,1,0,1,1,2,0v14.26A1,1,0,0,1,216.06,189.11Z" fill="#093f68"></path><path d="M198.32,142.06h-8.53a1,1,0,0,1,0-2h8.53a1,1,0,0,1,0,2Z" fill="#ffbc0e"></path></g></svg>